<svg xmlns="http://www.w3.org/2000/svg" viewBox="0 0 64 64"><defs><style>.cls-1{fill:#f0efe3;}.cls-2{fill:#bdab9d;}.cls-3{opacity:0.15;}.cls-4{fill:#5f4e56;}.cls-5{isolation:isolate;}</style></defs><title>folder</title><g id="Folder"><g id="Cream"><path class="cls-1" d="M60,16H40c-4.61,0-8.06-2.3-11.11-4.34C26.06,9.78,23.39,8,20,8H4a2,2,0,0,0-2,2V54a2,2,0,0,0,2,2H60a2,2,0,0,0,2-2V18A2,2,0,0,0,60,16Z"/></g><g id="Brown"><rect class="cls-2" x="4" y="50" width="56" height="4"/></g><g id="Details" class="cls-3"><path class="cls-4" d="M14,15H11a1,1,0,0,0,0,2h3a1,1,0,1,0,0-2ZM13,27H11a1,1,0,0,0,0,2h2a1,1,0,0,0,0-2Zm30-5a1,1,0,0,0-1-1H40a1,1,0,1,0,0,2h2A1,1,0,0,0,43,22ZM8,51H2a1,1,0,0,0,0,2H8a1,1,0,0,0,0-2ZM61,26H54a1,1,0,1,0,0,2h7a1,1,0,0,0,0-2ZM32,30H26a1,1,0,1,0,0,2h6a1,1,0,1,0,0-2Zm16,8a1,1,0,0,0-1-1H43a1,1,0,0,0,0,2h4A1,1,0,0,0,48,38ZM22,42H21a1,1,0,0,0,0,2h1a1,1,0,0,0,0-2Zm28,7H46a1,1,0,1,0,0,2h4a1,1,0,1,0,0-2Z"/></g><g id="Outline"><path class="cls-4" d="M60,14H40c-8,0-12-8-20-8H4a4,4,0,0,0-4,4V54a4,4,0,0,0,4,4H60a4,4,0,0,0,4-4V18A4,4,0,0,0,60,14Zm0,40H4V50H60Zm0-6H4V10H20c2.79,0,5.1,1.54,7.78,3.33C31.07,15.52,34.79,18,40,18H60Z"/></g></g></svg>