<svg xmlns="http://www.w3.org/2000/svg" viewBox="0 0 64 64"><defs><style>.cls-1{fill:#f0efe3;}.cls-2{fill:#bdab9d;}.cls-3{opacity:0.15;}.cls-4{fill:#5f4e56;}.cls-5{isolation:isolate;}</style></defs><title>home</title><g id="Home"><g id="Cream"><path class="cls-1" d="M32,2,10,24V60a2,2,0,0,0,2,2H52a2,2,0,0,0,2-2V24Z"/></g><g id="Brown"><rect class="cls-2" x="23" y="33" width="18" height="27"/></g><g id="Details" class="cls-3"><path class="cls-4" d="M18,46a1,1,0,0,0-1-1H11a1,1,0,1,0,0,2h6A1,1,0,0,0,18,46ZM32,29h2a1,1,0,0,0,0-2H32a1,1,0,0,0,0,2Zm0,10H28a1,1,0,0,0,0,2h4a1,1,0,0,0,0-2Zm9,17H35a1,1,0,0,0,0,2h6a1,1,0,0,0,0-2ZM53,34H49a1,1,0,0,0,0,2h4a1,1,0,0,0,0-2ZM41,21H51a1,1,0,0,0,0-2H41a1,1,0,0,0,0,2ZM23,13h6a1,1,0,0,0,0-2H23a1,1,0,0,0,0,2Zm2,8H19a1,1,0,0,0,0,2h6a1,1,0,0,0,0-2ZM49,49H48a1,1,0,1,0,0,2h1a1,1,0,0,0,0-2ZM23,57H18a1,1,0,0,0,0,2h5a1,1,0,0,0,0-2Z"/></g><g id="Outline"><path class="cls-4" d="M63.41,30.59h0l-30-30h0a2,2,0,0,0-2.83,0l-30,30h0a2,2,0,1,0,2.83,2.83L8,28.83V60a4,4,0,0,0,4,4H52a4,4,0,0,0,4-4V28.83l4.59,4.59h0a2,2,0,1,0,2.83-2.83ZM22,60H12V56H22Zm18,0H24V34H40Zm12,0H42V56H52Zm0-6H42V34a2,2,0,0,0-2-2H24a2,2,0,0,0-2,2V54H12V24.83l20-20,20,20ZM36,48a1,1,0,1,0-1-1A1,1,0,0,0,36,48Z"/></g></g></svg>