<svg xmlns="http://www.w3.org/2000/svg" viewBox="0 0 64 64"><defs><style>.cls-1{fill:#f0efe3;}.cls-2{fill:#bdab9d;}.cls-3{opacity:0.15;}.cls-4{fill:#5f4e56;}.cls-5{isolation:isolate;}</style></defs><title>camera</title><g id="Camera"><g id="Cream"><path class="cls-1" d="M60,16H54c-4.42,0-6.4-2.11-8.14-4C43.91,10,42.08,8,36,8H28c-6,0-7.88,2-9.83,4-1.75,1.86-3.74,4-8.17,4H4a2,2,0,0,0-2,2V54a2,2,0,0,0,2,2H60a2,2,0,0,0,2-2V18A2,2,0,0,0,60,16Z"/></g><g id="Brown"><circle class="cls-2" cx="32" cy="34" r="13"/></g><g id="Details" class="cls-3"><path class="cls-4" d="M53,48H45a1,1,0,0,0,0,2h8a1,1,0,0,0,0-2ZM31,32H28a1,1,0,0,0,0,2h3a1,1,0,0,0,0-2ZM8,27h4a1,1,0,0,0,0-2H8a1,1,0,0,0,0,2ZM38,15H37a1,1,0,0,0,0,2h1a1,1,0,1,0,0-2ZM9,46H3a1,1,0,0,0,0,2H9a1,1,0,0,0,0-2ZM56,25H55a1,1,0,0,0,0,2h1a1,1,0,1,0,0-2ZM25,22H21a1,1,0,0,0,0,2h4a1,1,0,0,0,0-2ZM14,38H11a1,1,0,1,0,0,2h3a1,1,0,0,0,0-2Zm41,3a1,1,0,1,0,1,1A1,1,0,0,0,55,41Z"/></g><g id="Outline"><path class="cls-4" d="M32,44A10,10,0,1,0,22,34,10,10,0,0,0,32,44Zm0-18a8,8,0,1,1-8,8A8,8,0,0,1,32,26Zm17-3a1,1,0,1,0,1,1A1,1,0,0,0,49,23Zm11-9H54c-8,0-5.5-8-18-8H28c-12.44,0-10,8-18,8H4a4,4,0,0,0-4,4V54a4,4,0,0,0,4,4H60a4,4,0,0,0,4-4V18A4,4,0,0,0,60,14Zm0,40H4V31H18.33a14,14,0,1,0,27.34,0H60ZM20,34A12,12,0,1,1,32,46,12,12,0,0,1,20,34Zm40-5H45.06a14,14,0,0,0-26.13,0H4V18h6c5.29,0,7.79-2.66,9.62-4.6S22.82,10,28,10h8c5.21,0,6.62,1.5,8.4,3.4S48.71,18,54,18h6Z"/></g></g></svg>