<svg xmlns="http://www.w3.org/2000/svg" viewBox="0 0 44 44"><title>photos-4@1x</title><g id="Layer_2" data-name="Layer 2"><g id="General"><g id="Photos_2x.png" data-name="Photos@2x.png"><path d="M10,22a4,4,0,1,0-4-4A4,4,0,0,0,10,22Zm0-6a2,2,0,1,1-2,2A2,2,0,0,1,10,16ZM29.93,36.63h0l0-.06-6-9.93h0a1,1,0,0,0-1.63-.34l-3.15,3.15-3.22-4.83A1,1,0,0,0,15,24a1,1,0,0,0-.82.46h0l-8,12h0A1,1,0,0,0,6,37a1,1,0,0,0,1,1H29a1,1,0,0,0,.93-1.37ZM8.87,36,15,26.79l3.07,4.6a1,1,0,0,0,1.63.32l3.1-3.1L27.25,36ZM40,0H12A4,4,0,0,0,8,4V5a1,1,0,0,0,2,0V4a2,2,0,0,1,2-2H40a2,2,0,0,1,2,2V32a2,2,0,0,1-2,2H39a1,1,0,0,0,0,2h1a4,4,0,0,0,4-4V4A4,4,0,0,0,40,0ZM32,8H4a4,4,0,0,0-4,4V40a4,4,0,0,0,4,4H32a4,4,0,0,0,4-4V12A4,4,0,0,0,32,8Zm2,32a2,2,0,0,1-2,2H4a2,2,0,0,1-2-2V12a2,2,0,0,1,2-2H32a2,2,0,0,1,2,2Z"/></g></g></g></svg>