<?xml version="1.0" encoding="UTF-8"?>
<svg width="17px" height="25px" viewBox="0 0 17 25" version="1.1" xmlns="http://www.w3.org/2000/svg" xmlns:xlink="http://www.w3.org/1999/xlink">
    <!-- Generator: Sketch 42 (36781) - http://www.bohemiancoding.com/sketch -->
    <title>location-pin</title>
    <desc>Created with Sketch.</desc>
    <defs></defs>
    <g id="Page-1" stroke="none" stroke-width="1" fill="none" fill-rule="evenodd">
        <g id="Subtle-Color" transform="translate(-304.000000, -50.000000)">
            <g id="location-pin" transform="translate(304.000000, 50.000000)">
                <path d="M8.5,12.5 C6.291,12.5 4.5,10.709 4.5,8.5 C4.5,6.291 6.291,4.5 8.5,4.5 C10.709,4.5 12.5,6.291 12.5,8.5 C12.5,10.709 10.709,12.5 8.5,12.5 M8.5,0.5 C4.082,0.5 0.5,4.082 0.5,8.5 C0.5,13.5 8.5,24.5 8.5,24.5 C8.5,24.5 16.5,13.5 16.5,8.5 C16.5,4.082 12.918,0.5 8.5,0.5" id="Fill-60" fill="#45C7D8" opacity="0.119999997"></path>
                <path d="M8.5,12.5 C6.291,12.5 4.5,10.709 4.5,8.5 C4.5,6.291 6.291,4.5 8.5,4.5 C10.709,4.5 12.5,6.291 12.5,8.5 C12.5,10.709 10.709,12.5 8.5,12.5 Z M8.5,0.5 C4.082,0.5 0.5,4.082 0.5,8.5 C0.5,13.5 8.5,24.5 8.5,24.5 C8.5,24.5 16.5,13.5 16.5,8.5 C16.5,4.082 12.918,0.5 8.5,0.5 Z" id="Stroke-61" stroke="#45C7D8" stroke-linecap="round" stroke-linejoin="round"></path>
            </g>
        </g>
    </g>
</svg>