<svg xmlns="http://www.w3.org/2000/svg" viewBox="0 0 44 36"><title>camera@1x</title><g id="Layer_2" data-name="Layer 2"><g id="Electronics"><g id="Camera_2x.png" data-name="Camera@2x.png"><path d="M22,14a6,6,0,1,0,6,6A6,6,0,0,0,22,14Zm0,10a4,4,0,1,1,4-4A4,4,0,0,1,22,24ZM17,6H27a1,1,0,0,0,0-2H17a1,1,0,0,0,0,2Zm5,4A10,10,0,1,0,32,20,10,10,0,0,0,22,10Zm0,18a8,8,0,1,1,8-8A8,8,0,0,1,22,28ZM40,4H36c-3,0-3-4-7-4H15c-4,0-4,4-7,4H4A4,4,0,0,0,0,8V32a4,4,0,0,0,4,4H40a4,4,0,0,0,4-4V8A4,4,0,0,0,40,4Zm2,20H33.3a12,12,0,0,1-.92,2H42v6a2,2,0,0,1-2,2H4a2,2,0,0,1-2-2V26h9.62a11.88,11.88,0,0,1-.92-2H2V8A2,2,0,0,1,4,6H8c4,0,4-4,7-4H29c3,0,3,4,7,4h4a2,2,0,0,1,2,2Zm-5-8a1,1,0,1,0,1,1A1,1,0,0,0,37,16Zm0-8a3,3,0,1,0,3,3A3,3,0,0,0,37,8Zm0,4a1,1,0,1,1,1-1A1,1,0,0,1,37,12Z"/></g></g></g></svg>