<svg xmlns="http://www.w3.org/2000/svg" viewBox="0 0 64 64"><defs><style>.cls-1{fill:#f0efe3;}.cls-2{fill:#bdab9d;}.cls-3{opacity:0.15;}.cls-4{fill:#5f4e56;}.cls-5{isolation:isolate;}</style></defs><title>browser</title><g id="Browser"><g id="Cream"><rect class="cls-1" x="2" y="6" width="60" height="52" rx="2" ry="2"/></g><g id="Brown"><path class="cls-2" d="M10,50H34V22H10ZM42,22V42H54V22Z"/></g><g id="Details" class="cls-3"><path class="cls-4" d="M58,23H50a1,1,0,0,0,0,2h8a1,1,0,0,0,0-2ZM5,24H2a1,1,0,0,0,0,2H5a1,1,0,0,0,0-2Zm7,21H7a1,1,0,0,0,0,2h5a1,1,0,0,0,0-2ZM41,18a1,1,0,0,0-1-1H39a1,1,0,0,0,0,2h1A1,1,0,0,0,41,18ZM29,30a1,1,0,0,0-1-1H22a1,1,0,0,0,0,2h6A1,1,0,0,0,29,30ZM54,49H52a1,1,0,0,0,0,2h2a1,1,0,0,0,0-2ZM31,42H27a1,1,0,0,0,0,2h4a1,1,0,0,0,0-2Zm13-4H41a1,1,0,0,0,0,2h3a1,1,0,0,0,0-2ZM18,34a1,1,0,1,0,1,1A1,1,0,0,0,18,34Z"/></g><g id="Outline"><path class="cls-4" d="M7,12a1,1,0,1,0-1-1A1,1,0,0,0,7,12Zm29,8H8V52H36ZM34,50H10V22H34ZM56,20H40V44H56ZM54,42H42V22H54ZM60,4H4A4,4,0,0,0,0,8V56a4,4,0,0,0,4,4H60a4,4,0,0,0,4-4V8A4,4,0,0,0,60,4Zm0,52H4V16H60Zm0-42H4V8H60ZM21,12H51a1,1,0,0,0,0-2H21a1,1,0,0,0,0,2ZM11,12a1,1,0,1,0-1-1A1,1,0,0,0,11,12Zm4,0a1,1,0,1,0-1-1A1,1,0,0,0,15,12Zm40,0h2a1,1,0,0,0,0-2H55a1,1,0,0,0,0,2Z"/></g></g></svg>