<svg xmlns="http://www.w3.org/2000/svg" viewBox="0 0 44 44"><title>folder-search@1x</title><g id="Layer_2" data-name="Layer 2"><g id="General"><g id="Folder_Search_2x.png" data-name="Folder Search@2x.png"><path d="M34.57,33.16a14,14,0,1,0-1.41,1.41L34.57,36h0l7.71,7.71a1,1,0,0,0,1.41-1.41ZM24,36A12,12,0,1,1,36,24,12,12,0,0,1,24,36ZM40,4H22c-4,0-4-4-8-4H4A4,4,0,0,0,0,4V32a4,4,0,0,0,4,4h9.44a16,16,0,0,1-1.92-2H4a2,2,0,0,1-2-2V12H13.44a16.06,16.06,0,0,1,2.82-2H2V4A2,2,0,0,1,4,2H14c3,0,3,4,8,4H40a2,2,0,0,1,2,2v2H31.74a16.06,16.06,0,0,1,2.82,2H42V32a2,2,0,0,1-2,2H38.23l2,2A4,4,0,0,0,44,32V8A4,4,0,0,0,40,4Z"/></g></g></g></svg>