<svg xmlns="http://www.w3.org/2000/svg" viewBox="0 0 64 64"><defs><style>.cls-1{fill:#f0efe3;}.cls-2{fill:#bdab9d;}.cls-3{opacity:0.15;}.cls-4{fill:#5f4e56;}.cls-5{isolation:isolate;}</style></defs><title>pencil</title><g id="Pencil"><g id="Cream"><path class="cls-1" d="M56,2a6,6,0,0,0-4.24,1.76l-44,44C6.2,49.31,4.1,55.82,2.7,61.3c5.48-1.4,12-3.5,13.54-5.05l44-44A6,6,0,0,0,56,2Z"/></g><g id="Brown"><path class="cls-2" d="M3,61c8,0,15-7,15-7l-8-8S3,53,3,61ZM56,2a6,6,0,0,0-4.24,1.76L48,7.51,56.49,16l3.76-3.76A6,6,0,0,0,56,2Z"/></g><g id="Details" class="cls-3"><path class="cls-4" d="M48,16a1,1,0,1,0-1-1A1,1,0,0,0,48,16ZM16,53H11a1,1,0,1,0,0,2h5a1,1,0,0,0,0-2ZM28,33H23a1,1,0,0,0,0,2h5a1,1,0,0,0,0-2Zm12-9H38a1,1,0,0,0,0,2h2a1,1,0,1,0,0-2ZM20,45H18a1,1,0,0,0,0,2h2a1,1,0,0,0,0-2ZM51,19H46a1,1,0,0,0,0,2h5a1,1,0,0,0,0-2ZM56,6H54a1,1,0,0,0,0,2h2a1,1,0,0,0,0-2Z"/></g><g id="Outline"><path class="cls-4" d="M56,0a8,8,0,0,0-5.66,2.34l-44,44C3.22,49.47,0,64,0,64s14.53-3.22,17.66-6.34l44-44A8,8,0,0,0,56,0ZM48.46,9.88l5.66,5.66L17.54,52.12l-5.66-5.66ZM5.54,58.46c1.33-4.59,2.77-8.39,3.63-9.29l1.29-1.29,5.66,5.66-1.29,1.29C13.93,55.69,10.14,57.13,5.54,58.46ZM58.83,10.83l-3.29,3.29L49.88,8.46l3.29-3.29a4,4,0,1,1,5.66,5.66Z"/></g></g></svg>