<svg xmlns="http://www.w3.org/2000/svg" viewBox="0 0 64 64"><defs><style>.cls-1{fill:#f0efe3;}.cls-2{fill:#bdab9d;}.cls-3{opacity:0.15;}.cls-4{fill:#5f4e56;}.cls-5{isolation:isolate;}</style></defs><title>location-pin</title><g id="Location-Pin"><g id="Cream"><path class="cls-1" d="M32,2A20,20,0,0,0,12,22c0,11.66,15.54,34.93,20,39.51C36.46,56.93,52,33.66,52,22A20,20,0,0,0,32,2Zm0,29a9,9,0,1,1,9-9A9,9,0,0,1,32,31Z"/></g><g id="Brown"><path class="cls-2" d="M32,47a13.92,13.92,0,0,0-8.43,2.84A85.17,85.17,0,0,0,32,61.51a85.18,85.18,0,0,0,8.43-11.67A13.92,13.92,0,0,0,32,47Z"/></g><g id="Details" class="cls-3"><path class="cls-4" d="M19,22H17a1,1,0,0,0,0,2h2a1,1,0,0,0,0-2Zm24,4H40a1,1,0,0,0,0,2h3a1,1,0,0,0,0-2ZM17,10h7a1,1,0,0,0,0-2H17a1,1,0,0,0,0,2Zm33,3H46a1,1,0,0,0,0,2h4a1,1,0,0,0,0-2ZM38,52H34a1,1,0,0,0,0,2h4a1,1,0,0,0,0-2ZM29,40H25a1,1,0,0,0,0,2h4a1,1,0,0,0,0-2Zm9-4a1,1,0,1,0,1,1A1,1,0,0,0,38,36Z"/></g><g id="Outline"><path class="cls-4" d="M32,0A22,22,0,0,0,10,22c0,14,20,42,22,42S54,36,54,22A22,22,0,0,0,32,0Zm0,58.47a104.65,104.65,0,0,1-6.76-9.71,13.86,13.86,0,0,1,13.51,0A104.65,104.65,0,0,1,32,58.47ZM32,45a15.84,15.84,0,0,0-7.8,2.06C19.08,38.63,14,28.28,14,22a18,18,0,1,1,36,0c0,6.28-5.08,16.63-10.2,25.06A15.84,15.84,0,0,0,32,45Zm0-33A10,10,0,1,0,42,22,10,10,0,0,0,32,12Zm0,18a8,8,0,1,1,8-8A8,8,0,0,1,32,30Z"/></g></g></svg>