<svg xmlns="http://www.w3.org/2000/svg" viewBox="0 0 64 64"><defs><style>.cls-1{fill:#f0efe3;}.cls-2{fill:#bdab9d;}.cls-3{opacity:0.15;}.cls-4{fill:#5f4e56;}.cls-5{isolation:isolate;}</style></defs><title>magnify</title><g id="Magnify"><g id="Cream"><path class="cls-1" d="M50,26A24,24,0,1,0,26,50,24,24,0,0,0,50,26ZM26,43A17,17,0,1,1,43,26,17,17,0,0,1,26,43Zm19.83-2.83-5.66,5.66,15,15,5.66-5.66Z"/></g><g id="Brown"><path class="cls-2" d="M60.83,55.17l-3.5-3.5-5.66,5.66,3.5,3.5a4,4,0,0,0,5.66-5.66Z"/></g><g id="Details" class="cls-3"><path class="cls-4" d="M51,47H49a1,1,0,0,0,0,2h2a1,1,0,0,0,0-2ZM10,32H8a1,1,0,0,0,0,2h2a1,1,0,1,0,0-2Zm40-4a1,1,0,0,0-1-1H43a1,1,0,1,0,0,2h6A1,1,0,0,0,50,28ZM34,42H27a1,1,0,0,0,0,2h7a1,1,0,0,0,0-2ZM6,20H2a1,1,0,0,0,0,2H6a1,1,0,0,0,0-2ZM57,57H53a1,1,0,0,0,0,2h4a1,1,0,0,0,0-2ZM46,12a1,1,0,0,0-1-1H41a1,1,0,0,0,0,2h4A1,1,0,0,0,46,12ZM17,43a1,1,0,1,0,1,1A1,1,0,0,0,17,43ZM24,5H22a1,1,0,0,0,0,2h2a1,1,0,0,0,0-2Z"/></g><g id="Outline"><path class="cls-4" d="M62.24,53.76,48.13,39.65a26,26,0,1,0-8.49,8.49L53.76,62.24h0a6,6,0,0,0,8.49-8.49ZM26,48A22,22,0,1,1,48,26,22,22,0,0,1,26,48Zm26.38,7.21-9.47-9.47a26.14,26.14,0,0,0,2.83-2.83l9.47,9.47ZM58,60a2,2,0,0,1-1.41-.59l-2.79-2.79,2.83-2.83,2.79,2.79A2,2,0,0,1,58,60ZM26,8A18,18,0,1,0,44,26,18,18,0,0,0,26,8Zm0,34A16,16,0,1,1,42,26,16,16,0,0,1,26,42Z"/></g></g></svg>