<svg xmlns="http://www.w3.org/2000/svg" viewBox="0 0 64 64"><defs><style>.cls-1{fill:#f0efe3;}.cls-2{fill:#bdab9d;}.cls-3{opacity:0.15;}.cls-4{fill:#5f4e56;}.cls-5{isolation:isolate;}</style></defs><title>chat</title><g id="Chat"><g id="Cream"><path class="cls-1" d="M32,2C15.46,2,2,13.66,2,28a24.14,24.14,0,0,0,8.05,17.71,2,2,0,0,1,.61,1.78l-2.09,13,14.83-7.16a2,2,0,0,1,1.29-.15A34.5,34.5,0,0,0,32,54c16.54,0,30-11.66,30-26S48.54,2,32,2Z"/></g><g id="Brown"><path class="cls-2" d="M16,23a5,5,0,1,0,5,5A5,5,0,0,0,16,23Zm16,0a5,5,0,1,0,5,5A5,5,0,0,0,32,23Zm16,0a5,5,0,1,0,5,5A5,5,0,0,0,48,23Z"/></g><g id="Details" class="cls-3"><path class="cls-4" d="M23,10h8a1,1,0,0,0,0-2H23a1,1,0,0,0,0,2Zm15,5H33a1,1,0,0,0,0,2h5a1,1,0,1,0,0-2ZM36,29H32a1,1,0,0,0,0,2h4a1,1,0,0,0,0-2Zm12-2H47a1,1,0,0,0,0,2h1a1,1,0,0,0,0-2ZM44,40H40a1,1,0,0,0,0,2h4a1,1,0,1,0,0-2ZM16,45H10a1,1,0,0,0,0,2h6a1,1,0,0,0,0-2Zm7-7H22a1,1,0,1,0,0,2h1a1,1,0,0,0,0-2ZM53,11H49a1,1,0,0,0,0,2h4a1,1,0,0,0,0-2ZM32,48H29a1,1,0,0,0,0,2h3a1,1,0,0,0,0-2ZM11,20h3a1,1,0,0,0,0-2H11a1,1,0,1,0,0,2Z"/></g><g id="Outline"><path class="cls-4" d="M16,22a6,6,0,1,0,6,6A6,6,0,0,0,16,22Zm0,10a4,4,0,1,1,4-4A4,4,0,0,1,16,32ZM48,22a6,6,0,1,0,6,6A6,6,0,0,0,48,22Zm0,10a4,4,0,1,1,4-4A4,4,0,0,1,48,32ZM32,0C14.33,0,0,12.54,0,28A26.14,26.14,0,0,0,8.69,47.17L6,64l18.28-8.83A36.42,36.42,0,0,0,32,56c17.67,0,32-12.54,32-28S49.67,0,32,0Zm0,52a32.49,32.49,0,0,1-6.87-.73,4,4,0,0,0-2.59.31L11.16,57.07l1.48-9.26a4,4,0,0,0-1.23-3.56A22.17,22.17,0,0,1,4,28C4,14.77,16.56,4,32,4S60,14.77,60,28,47.44,52,32,52Zm0-30a6,6,0,1,0,6,6A6,6,0,0,0,32,22Zm0,10a4,4,0,1,1,4-4A4,4,0,0,1,32,32Z"/></g></g></svg>