<?xml version="1.0" encoding="UTF-8"?>
<svg width="25px" height="25px" viewBox="0 0 25 25" version="1.1" xmlns="http://www.w3.org/2000/svg" xmlns:xlink="http://www.w3.org/1999/xlink">
    <!-- Generator: Sketch 42 (36781) - http://www.bohemiancoding.com/sketch -->
    <title>message</title>
    <desc>Created with Sketch.</desc>
    <defs></defs>
    <g id="Page-1" stroke="none" stroke-width="1" fill="none" fill-rule="evenodd">
        <g id="Subtle-Color" transform="translate(-50.000000, -300.000000)">
            <g id="message" transform="translate(50.000000, 300.000000)">
                <path d="M12.5,0.5 C5.873,0.5 0.5,5.425 0.5,11.5 C0.5,13.376 1.019,15.138 1.925,16.682 C2.519,17.692 2.589,18.929 2.178,20.026 L0.5,24.5 L6.395,22.143 C7.225,21.811 8.137,21.779 8.998,22.021 C10.105,22.332 11.281,22.5 12.5,22.5 C19.127,22.5 24.5,17.575 24.5,11.5 C24.5,5.425 19.127,0.5 12.5,0.5" id="Fill-234" fill="#3CB54D" opacity="0.119999997"></path>
                <path d="M12.5,0.5 C5.873,0.5 0.5,5.425 0.5,11.5 C0.5,13.376 1.019,15.138 1.925,16.682 C2.519,17.692 2.589,18.929 2.178,20.026 L0.5,24.5 L6.395,22.143 C7.225,21.811 8.137,21.779 8.998,22.021 C10.105,22.332 11.281,22.5 12.5,22.5 C19.127,22.5 24.5,17.575 24.5,11.5 C24.5,5.425 19.127,0.5 12.5,0.5 Z" id="Stroke-235" stroke="#3CB54D" stroke-linecap="round" stroke-linejoin="round"></path>
                <path d="M13.5,11.5 C13.5,12.053 13.052,12.5 12.5,12.5 C11.948,12.5 11.5,12.053 11.5,11.5 C11.5,10.947 11.948,10.5 12.5,10.5 C13.052,10.5 13.5,10.947 13.5,11.5" id="Fill-236" fill="#3CB54D"></path>
                <path d="M13.5,11.5 C13.5,12.053 13.052,12.5 12.5,12.5 C11.948,12.5 11.5,12.053 11.5,11.5 C11.5,10.947 11.948,10.5 12.5,10.5 C13.052,10.5 13.5,10.947 13.5,11.5 Z" id="Stroke-237" stroke="#3CB54D" stroke-linecap="round" stroke-linejoin="round"></path>
                <path d="M8.5,11.5 C8.5,12.053 8.052,12.5 7.5,12.5 C6.948,12.5 6.5,12.053 6.5,11.5 C6.5,10.947 6.948,10.5 7.5,10.5 C8.052,10.5 8.5,10.947 8.5,11.5" id="Fill-238" fill="#3CB54D"></path>
                <path d="M8.5,11.5 C8.5,12.053 8.052,12.5 7.5,12.5 C6.948,12.5 6.5,12.053 6.5,11.5 C6.5,10.947 6.948,10.5 7.5,10.5 C8.052,10.5 8.5,10.947 8.5,11.5 Z" id="Stroke-239" stroke="#3CB54D" stroke-linecap="round" stroke-linejoin="round"></path>
                <path d="M18.5,11.5 C18.5,12.053 18.052,12.5 17.5,12.5 C16.948,12.5 16.5,12.053 16.5,11.5 C16.5,10.947 16.948,10.5 17.5,10.5 C18.052,10.5 18.5,10.947 18.5,11.5" id="Fill-240" fill="#3CB54D"></path>
                <path d="M18.5,11.5 C18.5,12.053 18.052,12.5 17.5,12.5 C16.948,12.5 16.5,12.053 16.5,11.5 C16.5,10.947 16.948,10.5 17.5,10.5 C18.052,10.5 18.5,10.947 18.5,11.5 Z" id="Stroke-241" stroke="#3CB54D" stroke-linecap="round" stroke-linejoin="round"></path>
            </g>
        </g>
    </g>
</svg>